<svg width="84" height="27" viewBox="0 0 84 27" fill="none" xmlns="http://www.w3.org/2000/svg">
<path d="M14.2916 17.5V2.5H15.9583V17.5H14.2916ZM21.9999 17.5V7.08333H23.6666V17.5H21.9999ZM10.3333 17.5L10.3366 9.16667H12.0033L11.9999 17.5H10.3333ZM18.0399 17.5V11.6667H19.7066V17.5H18.0399Z" fill="#536471"/>
<path d="M38.9787 15V14.169L42.0994 10.7528C42.4657 10.3527 42.7673 10.005 43.0043 9.70952C43.2412 9.41098 43.4167 9.13092 43.5305 8.86932C43.6475 8.60464 43.706 8.32765 43.706 8.03835C43.706 7.70597 43.6259 7.41821 43.4659 7.17507C43.3089 6.93194 43.0935 6.7442 42.8196 6.61186C42.5457 6.47952 42.2379 6.41335 41.8963 6.41335C41.5331 6.41335 41.2161 6.48875 40.9453 6.63956C40.6776 6.78729 40.4698 6.99503 40.3221 7.26278C40.1774 7.53054 40.1051 7.84446 40.1051 8.20454H39.0156C39.0156 7.65057 39.1433 7.1643 39.3988 6.74574C39.6542 6.32718 40.002 6.00095 40.4421 5.76704C40.8853 5.53314 41.3823 5.41619 41.9332 5.41619C42.4872 5.41619 42.9781 5.53314 43.4059 5.76704C43.8337 6.00095 44.1692 6.31641 44.4123 6.71342C44.6554 7.11044 44.777 7.55208 44.777 8.03835C44.777 8.38613 44.7139 8.72621 44.5877 9.05859C44.4646 9.3879 44.2492 9.75568 43.9414 10.1619C43.6367 10.5651 43.2135 11.0575 42.6719 11.6392L40.5483 13.9105V13.9844H44.9432V15H38.9787ZM49.8782 15.1293C49.2442 15.1293 48.6841 15.0169 48.1978 14.7923C47.7146 14.5645 47.3376 14.2521 47.0668 13.8551C46.7959 13.455 46.6621 12.9995 46.6651 12.4886C46.6621 12.0885 46.7405 11.7192 46.9006 11.3807C47.0606 11.0391 47.2791 10.7544 47.5561 10.5266C47.8362 10.2958 48.1486 10.1496 48.4933 10.0881V10.0327C48.0408 9.91572 47.6808 9.66181 47.413 9.27095C47.1452 8.87701 47.0129 8.42921 47.016 7.92756C47.0129 7.44744 47.1345 7.01811 47.3807 6.63956C47.6269 6.26101 47.9654 5.96248 48.3963 5.74396C48.8303 5.52545 49.3242 5.41619 49.8782 5.41619C50.426 5.41619 50.9154 5.52545 51.3462 5.74396C51.7771 5.96248 52.1156 6.26101 52.3619 6.63956C52.6112 7.01811 52.7373 7.44744 52.7404 7.92756C52.7373 8.42921 52.6004 8.87701 52.3295 9.27095C52.0618 9.66181 51.7063 9.91572 51.2631 10.0327V10.0881C51.6048 10.1496 51.9125 10.2958 52.1864 10.5266C52.4603 10.7544 52.6789 11.0391 52.842 11.3807C53.0051 11.7192 53.0882 12.0885 53.0913 12.4886C53.0882 12.9995 52.9497 13.455 52.6758 13.8551C52.4049 14.2521 52.0279 14.5645 51.5447 14.7923C51.0646 15.0169 50.5091 15.1293 49.8782 15.1293ZM49.8782 14.1136C50.306 14.1136 50.6753 14.0444 50.9862 13.9059C51.297 13.7674 51.5371 13.572 51.7063 13.3196C51.8756 13.0672 51.9618 12.7718 51.9648 12.4332C51.9618 12.0762 51.8694 11.7608 51.6879 11.4869C51.5063 11.2129 51.2585 10.9975 50.9446 10.8406C50.6338 10.6836 50.2783 10.6051 49.8782 10.6051C49.475 10.6051 49.1149 10.6836 48.7979 10.8406C48.484 10.9975 48.2363 11.2129 48.0547 11.4869C47.8762 11.7608 47.7885 12.0762 47.7915 12.4332C47.7885 12.7718 47.87 13.0672 48.0362 13.3196C48.2055 13.572 48.4471 13.7674 48.761 13.9059C49.0749 14.0444 49.4473 14.1136 49.8782 14.1136ZM49.8782 9.62642C50.2167 9.62642 50.5168 9.55871 50.7784 9.4233C51.0431 9.28788 51.2508 9.0986 51.4016 8.85547C51.5524 8.61233 51.6294 8.32765 51.6325 8.00142C51.6294 7.68134 51.554 7.40282 51.4062 7.16584C51.2585 6.92578 51.0539 6.74112 50.7923 6.61186C50.5307 6.47952 50.226 6.41335 49.8782 6.41335C49.5243 6.41335 49.215 6.47952 48.9503 6.61186C48.6856 6.74112 48.4809 6.92578 48.3363 7.16584C48.1916 7.40282 48.1209 7.68134 48.1239 8.00142C48.1209 8.32765 48.1932 8.61233 48.3409 8.85547C48.4917 9.0986 48.6995 9.28788 48.9641 9.4233C49.2288 9.55871 49.5335 9.62642 49.8782 9.62642ZM58.1844 5.54545V15H57.0395V6.74574H56.9841L54.6759 8.27841V7.11506L57.0395 5.54545H58.1844ZM61.1574 15.0739C60.9297 15.0739 60.7342 14.9923 60.5711 14.8292C60.408 14.6661 60.3264 14.4706 60.3264 14.2429C60.3264 14.0152 60.408 13.8197 60.5711 13.6566C60.7342 13.4935 60.9297 13.4119 61.1574 13.4119C61.3852 13.4119 61.5806 13.4935 61.7437 13.6566C61.9068 13.8197 61.9884 14.0152 61.9884 14.2429C61.9884 14.3937 61.9499 14.5322 61.873 14.6584C61.7991 14.7846 61.6991 14.8861 61.5729 14.9631C61.4498 15.0369 61.3113 15.0739 61.1574 15.0739ZM66.119 5.54545V15H64.9741V6.74574H64.9187L62.6104 8.27841V7.11506L64.9741 5.54545H66.119ZM69.0043 15V5.54545H70.1491V10.2358H70.2599L74.5071 5.54545H76.0028L72.0327 9.81108L76.0028 15H74.6179L71.331 10.6051L70.1491 11.9347V15H69.0043Z" fill="#536471"/>
</svg>
