<svg width="79" height="28" viewBox="0 0 79 28" fill="none" xmlns="http://www.w3.org/2000/svg">
<path d="M14.2916 17.8027V2.80273H15.9583V17.8027H14.2916ZM21.9999 17.8027V7.38607H23.6666V17.8027H21.9999ZM10.3333 17.8027L10.3366 9.4694H12.0033L11.9999 17.8027H10.3333ZM18.0399 17.8027V11.9694H19.7066V17.8027H18.0399Z" fill="#536471"/>
<path d="M42.1733 15.432C41.5639 15.432 41.0207 15.3274 40.5437 15.1181C40.0697 14.9088 39.6927 14.618 39.4126 14.2456C39.1357 13.8701 38.9848 13.4346 38.9602 12.9391H40.1236C40.1482 13.2438 40.2528 13.5069 40.4375 13.7285C40.6222 13.947 40.8638 14.1163 41.1623 14.2363C41.4608 14.3564 41.7917 14.4164 42.1548 14.4164C42.5611 14.4164 42.9212 14.3456 43.2351 14.204C43.549 14.0624 43.7952 13.8655 43.9737 13.6131C44.1522 13.3607 44.2415 13.0684 44.2415 12.736C44.2415 12.3882 44.1553 12.082 43.983 11.8173C43.8106 11.5495 43.5582 11.3403 43.2259 11.1895C42.8935 11.0386 42.4872 10.9632 42.0071 10.9632H41.25V9.94762H42.0071C42.3826 9.94762 42.7119 9.87991 42.995 9.7445C43.2813 9.60908 43.5044 9.41826 43.6644 9.17205C43.8275 8.92584 43.9091 8.63654 43.9091 8.30415C43.9091 7.98408 43.8383 7.70555 43.6967 7.46857C43.5552 7.23159 43.3551 7.04693 43.0966 6.91459C42.8411 6.78226 42.5395 6.71609 42.1918 6.71609C41.8655 6.71609 41.5578 6.7761 41.2685 6.89613C40.9822 7.01308 40.7483 7.18389 40.5668 7.40856C40.3852 7.63015 40.2867 7.8979 40.2713 8.21183H39.1634C39.1818 7.71632 39.3311 7.28237 39.6112 6.90998C39.8912 6.5345 40.2575 6.24213 40.7099 6.03285C41.1654 5.82357 41.6655 5.71893 42.2102 5.71893C42.795 5.71893 43.2966 5.83742 43.7152 6.0744C44.1338 6.3083 44.4554 6.6176 44.68 7.00231C44.9047 7.38701 45.017 7.8025 45.017 8.24876C45.017 8.78119 44.877 9.23514 44.5969 9.61062C44.32 9.98609 43.9429 10.2462 43.4659 10.3908V10.4647C44.063 10.5632 44.5292 10.8171 44.8647 11.2264C45.2002 11.6326 45.3679 12.1358 45.3679 12.736C45.3679 13.2499 45.2279 13.7116 44.9478 14.1209C44.6708 14.5272 44.2923 14.8472 43.8121 15.0811C43.332 15.315 42.7857 15.432 42.1733 15.432ZM47.5515 15.3027L51.7802 6.93768V6.86381H46.9052V5.84819H52.962V6.91921L48.7518 15.3027H47.5515ZM53.8703 15.3766C53.6425 15.3766 53.4471 15.295 53.284 15.1319C53.1209 14.9688 53.0393 14.7734 53.0393 14.5456C53.0393 14.3179 53.1209 14.1225 53.284 13.9593C53.4471 13.7962 53.6425 13.7147 53.8703 13.7147C54.098 13.7147 54.2935 13.7962 54.4566 13.9593C54.6197 14.1225 54.7013 14.3179 54.7013 14.5456C54.7013 14.6964 54.6628 14.8349 54.5858 14.9611C54.512 15.0873 54.412 15.1889 54.2858 15.2658C54.1627 15.3397 54.0242 15.3766 53.8703 15.3766ZM59.3916 15.432C58.6961 15.432 58.1036 15.2427 57.6143 14.8642C57.1249 14.4825 56.751 13.9301 56.4925 13.2069C56.2339 12.4805 56.1047 11.6034 56.1047 10.5755C56.1047 9.55368 56.2339 8.68117 56.4925 7.95792C56.7541 7.23159 57.1295 6.67762 57.6189 6.29599C58.1113 5.91128 58.7022 5.71893 59.3916 5.71893C60.081 5.71893 60.6704 5.91128 61.1597 6.29599C61.6521 6.67762 62.0276 7.23159 62.2861 7.95792C62.5477 8.68117 62.6785 9.55368 62.6785 10.5755C62.6785 11.6034 62.5493 12.4805 62.2907 13.2069C62.0322 13.9301 61.6583 14.4825 61.1689 14.8642C60.6796 15.2427 60.0872 15.432 59.3916 15.432ZM59.3916 14.4164C60.081 14.4164 60.6165 14.084 60.9981 13.4192C61.3798 12.7544 61.5706 11.8065 61.5706 10.5755C61.5706 9.75681 61.4829 9.05972 61.3074 8.4842C61.1351 7.90868 60.8858 7.47011 60.5596 7.1685C60.2364 6.86689 59.8471 6.71609 59.3916 6.71609C58.7084 6.71609 58.1744 7.05309 57.7897 7.72709C57.405 8.39802 57.2126 9.34748 57.2126 10.5755C57.2126 11.3941 57.2988 12.0897 57.4711 12.6621C57.6435 13.2346 57.8912 13.67 58.2144 13.9686C58.5406 14.2671 58.933 14.4164 59.3916 14.4164ZM64.599 15.3027V5.84819H65.7439V10.5385H65.8547L70.1018 5.84819H71.5976L67.6274 10.1138L71.5976 15.3027H70.2126L66.9257 10.9078L65.7439 12.2374V15.3027H64.599Z" fill="#536471"/>
</svg>
