<svg width="71" height="28" viewBox="0 0 71 28" fill="none" xmlns="http://www.w3.org/2000/svg">
<path d="M21.581 4.88605C20.5627 4.83605 19.3485 5.31105 18.3393 6.68605L17.6685 7.59438L16.9968 6.68605C15.9868 5.31105 14.7718 4.83605 13.7535 4.88605C12.7177 4.94438 11.796 5.53605 11.3285 6.47772C10.8685 7.41105 10.801 8.79438 11.7277 10.4944C12.6227 12.136 14.4418 14.0527 17.6685 16.0027C20.8935 14.0527 22.7118 12.136 23.6068 10.4944C24.5327 8.79438 24.4652 7.41105 24.0043 6.47772C23.5368 5.53605 22.616 4.94438 21.581 4.88605ZM25.0702 11.2944C23.9443 13.361 21.736 15.5611 18.0877 17.6861L17.6685 17.936L17.2485 17.6861C13.5993 15.5611 11.391 13.361 10.2635 11.2944C9.13018 9.21105 9.08851 7.24438 9.83518 5.73605C10.5743 4.24438 12.041 3.31105 13.6693 3.22772C15.0452 3.15272 16.476 3.69438 17.6677 4.90272C18.8585 3.69438 20.2893 3.15272 21.6643 3.22772C23.2927 3.31105 24.7593 4.24438 25.4985 5.73605C26.2452 7.24438 26.2035 9.21105 25.0702 11.2944Z" fill="#536471"/>
<path d="M42.84 15.432C42.2307 15.432 41.6875 15.3274 41.2104 15.1181C40.7365 14.9088 40.3595 14.618 40.0794 14.2456C39.8024 13.8701 39.6516 13.4346 39.627 12.9391H40.7903C40.8149 13.2438 40.9196 13.5069 41.1042 13.7285C41.2889 13.947 41.5305 14.1163 41.829 14.2363C42.1276 14.3564 42.4584 14.4164 42.8216 14.4164C43.2278 14.4164 43.5879 14.3456 43.9018 14.204C44.2158 14.0624 44.462 13.8655 44.6405 13.6131C44.819 13.3607 44.9082 13.0684 44.9082 12.736C44.9082 12.3882 44.8221 12.082 44.6497 11.8173C44.4774 11.5495 44.225 11.3403 43.8926 11.1895C43.5602 11.0386 43.154 10.9632 42.6739 10.9632H41.9167V9.94762H42.6739C43.0493 9.94762 43.3786 9.87991 43.6618 9.7445C43.948 9.60908 44.1711 9.41826 44.3312 9.17205C44.4943 8.92584 44.5758 8.63654 44.5758 8.30415C44.5758 7.98408 44.5051 7.70555 44.3635 7.46857C44.2219 7.23159 44.0219 7.04693 43.7633 6.91459C43.5079 6.78226 43.2063 6.71609 42.8585 6.71609C42.5323 6.71609 42.2245 6.7761 41.9352 6.89613C41.649 7.01308 41.4151 7.18389 41.2335 7.40856C41.0519 7.63015 40.9534 7.8979 40.9381 8.21183H39.8301C39.8486 7.71632 39.9978 7.28237 40.2779 6.90998C40.558 6.5345 40.9242 6.24213 41.3766 6.03285C41.8321 5.82357 42.3322 5.71893 42.877 5.71893C43.4617 5.71893 43.9634 5.83742 44.3819 6.0744C44.8005 6.3083 45.1221 6.6176 45.3468 7.00231C45.5715 7.38701 45.6838 7.8025 45.6838 8.24876C45.6838 8.78119 45.5438 9.23514 45.2637 9.61062C44.9867 9.98609 44.6097 10.2462 44.1327 10.3908V10.4647C44.7297 10.5632 45.196 10.8171 45.5315 11.2264C45.8669 11.6326 46.0346 12.1358 46.0346 12.736C46.0346 13.2499 45.8946 13.7116 45.6145 14.1209C45.3376 14.5272 44.959 14.8472 44.4789 15.0811C43.9988 15.315 43.4525 15.432 42.84 15.432ZM50.8773 15.432C50.3357 15.432 49.8479 15.3243 49.4139 15.1088C48.98 14.8934 48.6322 14.598 48.3706 14.2225C48.109 13.847 47.9659 13.4192 47.9413 12.9391H49.0492C49.0923 13.3669 49.2862 13.7208 49.6309 14.0009C49.9787 14.2779 50.3941 14.4164 50.8773 14.4164C51.2651 14.4164 51.6098 14.3256 51.9114 14.144C52.2161 13.9624 52.4546 13.7131 52.627 13.3961C52.8024 13.0761 52.8901 12.7144 52.8901 12.3113C52.8901 11.8989 52.7993 11.5311 52.6177 11.2079C52.4392 10.8817 52.193 10.6247 51.8791 10.437C51.5652 10.2492 51.2066 10.1538 50.8035 10.1507C50.5142 10.1477 50.2172 10.1923 49.9125 10.2846C49.6078 10.3739 49.357 10.4893 49.16 10.6309L48.089 10.5016L48.6614 5.84819H53.5734V6.86381H49.6216L49.2893 9.65217H49.3447C49.5386 9.49828 49.7817 9.37056 50.0741 9.269C50.3664 9.16744 50.6711 9.11665 50.9881 9.11665C51.5667 9.11665 52.0822 9.25515 52.5346 9.53214C52.9901 9.80605 53.3471 10.1815 53.6057 10.6586C53.8673 11.1356 53.9981 11.6803 53.9981 12.2928C53.9981 12.896 53.8627 13.4346 53.5918 13.9086C53.3241 14.3794 52.9547 14.7518 52.4839 15.0257C52.013 15.2966 51.4775 15.432 50.8773 15.432ZM59.0266 15.432C58.4172 15.432 57.874 15.3274 57.397 15.1181C56.923 14.9088 56.546 14.618 56.2659 14.2456C55.9889 13.8701 55.8381 13.4346 55.8135 12.9391H56.9769C57.0015 13.2438 57.1061 13.5069 57.2908 13.7285C57.4754 13.947 57.717 14.1163 58.0156 14.2363C58.3141 14.3564 58.6449 14.4164 59.0081 14.4164C59.4144 14.4164 59.7744 14.3456 60.0884 14.204C60.4023 14.0624 60.6485 13.8655 60.827 13.6131C61.0055 13.3607 61.0947 13.0684 61.0947 12.736C61.0947 12.3882 61.0086 12.082 60.8362 11.8173C60.6639 11.5495 60.4115 11.3403 60.0791 11.1895C59.7467 11.0386 59.3405 10.9632 58.8604 10.9632H58.1033V9.94762H58.8604C59.2358 9.94762 59.5652 9.87991 59.8483 9.7445C60.1345 9.60908 60.3577 9.41826 60.5177 9.17205C60.6808 8.92584 60.7624 8.63654 60.7624 8.30415C60.7624 7.98408 60.6916 7.70555 60.55 7.46857C60.4084 7.23159 60.2084 7.04693 59.9499 6.91459C59.6944 6.78226 59.3928 6.71609 59.045 6.71609C58.7188 6.71609 58.411 6.7761 58.1217 6.89613C57.8355 7.01308 57.6016 7.18389 57.42 7.40856C57.2385 7.63015 57.14 7.8979 57.1246 8.21183H56.0166C56.0351 7.71632 56.1844 7.28237 56.4644 6.90998C56.7445 6.5345 57.1107 6.24213 57.5631 6.03285C58.0186 5.82357 58.5188 5.71893 59.0635 5.71893C59.6483 5.71893 60.1499 5.83742 60.5685 6.0744C60.987 6.3083 61.3086 6.6176 61.5333 7.00231C61.758 7.38701 61.8703 7.8025 61.8703 8.24876C61.8703 8.78119 61.7303 9.23514 61.4502 9.61062C61.1732 9.98609 60.7962 10.2462 60.3192 10.3908V10.4647C60.9162 10.5632 61.3825 10.8171 61.718 11.2264C62.0534 11.6326 62.2212 12.1358 62.2212 12.736C62.2212 13.2499 62.0811 13.7116 61.8011 14.1209C61.5241 14.5272 61.1455 14.8472 60.6654 15.0811C60.1853 15.315 59.639 15.432 59.0266 15.432Z" fill="#536471"/>
</svg>
