<svg width="70" height="27" viewBox="0 0 70 27" fill="none" xmlns="http://www.w3.org/2000/svg">
<path d="M21.581 4.58335C20.5627 4.53335 19.3485 5.00835 18.3393 6.38335L17.6685 7.29168L16.9968 6.38335C15.9868 5.00835 14.7718 4.53335 13.7535 4.58335C12.7177 4.64168 11.796 5.23335 11.3285 6.17501C10.8685 7.10835 10.801 8.49168 11.7277 10.1917C12.6227 11.8333 14.4418 13.75 17.6685 15.7C20.8935 13.75 22.7118 11.8333 23.6068 10.1917C24.5327 8.49168 24.4652 7.10835 24.0043 6.17501C23.5368 5.23335 22.616 4.64168 21.581 4.58335ZM25.0702 10.9917C23.9443 13.0583 21.736 15.2583 18.0877 17.3833L17.6685 17.6333L17.2485 17.3833C13.5993 15.2583 11.391 13.0583 10.2635 10.9917C9.13018 8.90835 9.08851 6.94168 9.83518 5.43335C10.5743 3.94168 12.041 3.00835 13.6693 2.92501C15.0452 2.85001 16.476 3.39168 17.6677 4.60001C18.8585 3.39168 20.2893 2.85001 21.6643 2.92501C23.2927 3.00835 24.7593 3.94168 25.4985 5.43335C26.2452 6.94168 26.2035 8.90835 25.0702 10.9917Z" fill="#536471"/>
<path d="M42.6554 5.41619C43.0432 5.41927 43.431 5.49313 43.8187 5.63778C44.2065 5.78243 44.5605 6.02249 44.8805 6.35795C45.2006 6.69034 45.4576 7.14429 45.6515 7.71981C45.8454 8.29534 45.9423 9.01705 45.9423 9.88494C45.9423 10.7251 45.8623 11.4715 45.7023 12.1239C45.5453 12.7733 45.3176 13.3211 45.019 13.7674C44.7236 14.2137 44.3635 14.5522 43.9388 14.783C43.5171 15.0138 43.0401 15.1293 42.5077 15.1293C41.9783 15.1293 41.5059 15.0246 41.0904 14.8153C40.678 14.603 40.3395 14.3091 40.0748 13.9336C39.8132 13.555 39.6454 13.1165 39.5716 12.6179H40.698C40.7996 13.0518 41.0011 13.4104 41.3028 13.6935C41.6074 13.9736 42.0091 14.1136 42.5077 14.1136C43.2371 14.1136 43.8126 13.7951 44.2342 13.158C44.6589 12.521 44.8713 11.6207 44.8713 10.4574H44.7974C44.6251 10.7159 44.4204 10.939 44.1834 11.1268C43.9465 11.3145 43.6833 11.4592 43.394 11.5607C43.1047 11.6623 42.797 11.7131 42.4707 11.7131C41.9291 11.7131 41.432 11.5792 40.9796 11.3114C40.5303 11.0406 40.1702 10.6697 39.8993 10.1989C39.6316 9.72491 39.4977 9.18324 39.4977 8.57386C39.4977 7.99526 39.627 7.46591 39.8855 6.98579C40.1471 6.5026 40.5133 6.1179 40.9842 5.83168C41.4582 5.54545 42.0152 5.40696 42.6554 5.41619ZM42.6554 6.43182C42.2676 6.43182 41.9183 6.52876 41.6074 6.72266C41.2997 6.91347 41.055 7.17199 40.8734 7.49822C40.6949 7.82138 40.6057 8.17992 40.6057 8.57386C40.6057 8.9678 40.6918 9.32635 40.8642 9.6495C41.0396 9.96958 41.2781 10.225 41.5797 10.4158C41.8844 10.6036 42.2307 10.6974 42.6185 10.6974C42.9108 10.6974 43.1832 10.6405 43.4356 10.5266C43.6879 10.4097 43.908 10.2512 44.0957 10.0511C44.2865 9.84801 44.4358 9.61873 44.5435 9.36328C44.6512 9.10476 44.7051 8.83546 44.7051 8.5554C44.7051 8.18608 44.6158 7.83984 44.4373 7.51669C44.2619 7.19354 44.0188 6.93194 43.7079 6.73189C43.4002 6.53184 43.0493 6.43182 42.6554 6.43182ZM47.7993 15L52.028 6.63494V6.56108H47.153V5.54545H53.2098V6.61648L48.9996 15H47.7993ZM54.9306 15V14.169L58.0513 10.7528C58.4176 10.3527 58.7192 10.005 58.9562 9.70952C59.1931 9.41098 59.3686 9.13092 59.4824 8.86932C59.5994 8.60464 59.6579 8.32765 59.6579 8.03835C59.6579 7.70597 59.5779 7.41821 59.4178 7.17507C59.2609 6.93194 59.0454 6.7442 58.7715 6.61186C58.4976 6.47952 58.1898 6.41335 57.8482 6.41335C57.485 6.41335 57.1681 6.48875 56.8972 6.63956C56.6295 6.78729 56.4217 6.99503 56.274 7.26278C56.1293 7.53054 56.057 7.84446 56.057 8.20454H54.9675C54.9675 7.65057 55.0953 7.1643 55.3507 6.74574C55.6061 6.32718 55.9539 6.00095 56.394 5.76704C56.8372 5.53314 57.3342 5.41619 57.8851 5.41619C58.4391 5.41619 58.93 5.53314 59.3578 5.76704C59.7856 6.00095 60.1211 6.31641 60.3642 6.71342C60.6073 7.11044 60.7289 7.55208 60.7289 8.03835C60.7289 8.38613 60.6658 8.72621 60.5396 9.05859C60.4165 9.3879 60.2011 9.75568 59.8933 10.1619C59.5886 10.5651 59.1654 11.0575 58.6238 11.6392L56.5002 13.9105V13.9844H60.8951V15H54.9306Z" fill="#536471"/>
</svg>
