<svg width="47" height="28" viewBox="0 0 47 28" fill="none" xmlns="http://www.w3.org/2000/svg">
<path d="M1.45923 8.63609C1.45923 4.95275 4.44589 1.96942 8.13006 1.96942H11.7684C15.5101 1.96942 18.5426 5.00276 18.5426 8.74442C18.5426 11.2111 17.2034 13.4778 15.0459 14.6694L8.33423 18.3861V15.3111H8.2784C4.53673 15.3944 1.45923 12.3861 1.45923 8.63609ZM8.13006 3.63609C5.36589 3.63609 3.1259 5.87775 3.1259 8.63609C3.1259 11.4444 5.43423 13.7028 8.2409 13.6444L8.53339 13.6361H10.0009V15.5528L14.2401 13.2111C15.8659 12.3111 16.8759 10.6028 16.8759 8.74442C16.8759 5.91942 14.5892 3.63609 11.7684 3.63609H8.13006Z" fill="#536471"/>
<path d="M35.1179 15.432C34.7301 15.4258 34.3423 15.352 33.9545 15.2104C33.5668 15.0688 33.2128 14.8303 32.8928 14.4949C32.5727 14.1563 32.3157 13.6993 32.1218 13.1238C31.9279 12.5452 31.831 11.8188 31.831 10.9448C31.831 10.1077 31.9094 9.36594 32.0664 8.71964C32.2234 8.07025 32.4511 7.52397 32.7496 7.08079C33.0482 6.63453 33.4083 6.29599 33.8299 6.06516C34.2546 5.83434 34.7332 5.71893 35.2656 5.71893C35.795 5.71893 36.2659 5.82511 36.6783 6.03746C37.0938 6.24674 37.4323 6.53912 37.6939 6.91459C37.9555 7.29007 38.1248 7.72248 38.2017 8.21183H37.0753C36.9706 7.78711 36.7675 7.43472 36.4659 7.15465C36.1643 6.87459 35.7642 6.73455 35.2656 6.73455C34.5331 6.73455 33.9561 7.05309 33.5344 7.69016C33.1159 8.32724 32.9051 9.22129 32.902 10.3723H32.9759C33.1482 10.1107 33.3529 9.88761 33.5898 9.70295C33.8299 9.51521 34.0946 9.37056 34.3839 9.269C34.6732 9.16744 34.9794 9.11665 35.3026 9.11665C35.8442 9.11665 36.3397 9.25207 36.7891 9.5229C37.2384 9.79066 37.5985 10.1615 37.8693 10.6355C38.1402 11.1064 38.2756 11.6465 38.2756 12.2559C38.2756 12.8406 38.1448 13.3761 37.8832 13.8624C37.6216 14.3456 37.2538 14.7303 36.7798 15.0165C36.3089 15.2997 35.755 15.4382 35.1179 15.432ZM35.1179 14.4164C35.5057 14.4164 35.8535 14.3194 36.1612 14.1255C36.4721 13.9316 36.7167 13.6716 36.8952 13.3453C37.0768 13.0191 37.1676 12.656 37.1676 12.2559C37.1676 11.865 37.0799 11.5095 36.9045 11.1895C36.7321 10.8663 36.4936 10.6093 36.1889 10.4185C35.8873 10.2277 35.5426 10.1323 35.1548 10.1323C34.8625 10.1323 34.5901 10.1908 34.3377 10.3077C34.0853 10.4216 33.8638 10.5785 33.6729 10.7786C33.4852 10.9786 33.3375 11.2079 33.2298 11.4664C33.122 11.7219 33.0682 11.9912 33.0682 12.2743C33.0682 12.6498 33.1559 13.0007 33.3313 13.3269C33.5098 13.6531 33.753 13.9163 34.0607 14.1163C34.3716 14.3163 34.724 14.4164 35.1179 14.4164Z" fill="#536471"/>
</svg>
