<svg width="53" height="27" viewBox="0 0 53 27" fill="none" xmlns="http://www.w3.org/2000/svg">
<path d="M1.45923 8.33332C1.45923 4.64999 4.44589 1.66666 8.13006 1.66666H11.7684C15.5101 1.66666 18.5426 4.69999 18.5426 8.44166C18.5426 10.9083 17.2034 13.175 15.0459 14.3667L8.33423 18.0833V15.0083H8.2784C4.53673 15.0917 1.45923 12.0833 1.45923 8.33332ZM8.13006 3.33332C5.36589 3.33332 3.1259 5.57499 3.1259 8.33332C3.1259 11.1417 5.43423 13.4 8.2409 13.3417L8.53339 13.3333H10.0009V15.25L14.2401 12.9083C15.8659 12.0083 16.8759 10.3 16.8759 8.44166C16.8759 5.61666 14.5892 3.33332 11.7684 3.33332H8.13006Z" fill="#536471"/>
<path d="M35.3026 5.54545V15H34.1577V6.74574H34.1023L31.794 8.27841V7.11506L34.1577 5.54545H35.3026ZM41.0316 5.41619C41.4194 5.41927 41.8072 5.49313 42.195 5.63778C42.5827 5.78243 42.9367 6.02249 43.2567 6.35795C43.5768 6.69034 43.8338 7.14429 44.0277 7.71981C44.2216 8.29534 44.3185 9.01705 44.3185 9.88494C44.3185 10.7251 44.2385 11.4715 44.0785 12.1239C43.9215 12.7733 43.6938 13.3211 43.3952 13.7674C43.0998 14.2137 42.7397 14.5522 42.315 14.783C41.8933 15.0138 41.4163 15.1293 40.8839 15.1293C40.3545 15.1293 39.8821 15.0246 39.4666 14.8153C39.0542 14.603 38.7157 14.3091 38.451 13.9336C38.1894 13.555 38.0217 13.1165 37.9478 12.6179H39.0742C39.1758 13.0518 39.3774 13.4104 39.679 13.6935C39.9837 13.9736 40.3853 14.1136 40.8839 14.1136C41.6133 14.1136 42.1888 13.7951 42.6104 13.158C43.0352 12.521 43.2475 11.6207 43.2475 10.4574H43.1737C43.0013 10.7159 42.7966 10.939 42.5597 11.1268C42.3227 11.3145 42.0595 11.4592 41.7702 11.5607C41.4809 11.6623 41.1732 11.7131 40.8469 11.7131C40.3053 11.7131 39.8082 11.5792 39.3558 11.3114C38.9065 11.0406 38.5464 10.6697 38.2756 10.1989C38.0078 9.72491 37.8739 9.18324 37.8739 8.57386C37.8739 7.99526 38.0032 7.46591 38.2617 6.98579C38.5233 6.5026 38.8896 6.1179 39.3604 5.83168C39.8344 5.54545 40.3915 5.40696 41.0316 5.41619ZM41.0316 6.43182C40.6438 6.43182 40.2945 6.52876 39.9837 6.72266C39.6759 6.91347 39.4312 7.17199 39.2496 7.49822C39.0711 7.82138 38.9819 8.17992 38.9819 8.57386C38.9819 8.9678 39.0681 9.32635 39.2404 9.6495C39.4158 9.96958 39.6544 10.225 39.956 10.4158C40.2607 10.6036 40.6069 10.6974 40.9947 10.6974C41.2871 10.6974 41.5594 10.6405 41.8118 10.5266C42.0642 10.4097 42.2842 10.2512 42.4719 10.0511C42.6628 9.84801 42.812 9.61873 42.9197 9.36328C43.0275 9.10476 43.0813 8.83546 43.0813 8.5554C43.0813 8.18608 42.9921 7.83984 42.8136 7.51669C42.6381 7.19354 42.395 6.93194 42.0842 6.73189C41.7764 6.53184 41.4255 6.43182 41.0316 6.43182Z" fill="#536471"/>
</svg>
