<svg width="66" height="34" viewBox="0 0 66 34" fill="none" xmlns="http://www.w3.org/2000/svg">
<g clip-path="url(#clip0_1_468)">
<path d="M11.0832 10.2333L14.7766 13.6833L13.6399 14.9L11.9166 13.2917V20.3333C11.9166 21.25 12.6632 22 13.5832 22H18.1666V23.6667H13.5832C11.7424 23.6667 10.2499 22.175 10.2499 20.3333V13.2917L8.52656 14.9L7.38989 13.6833L11.0832 10.2333ZM21.0832 12H16.4999V10.3333H21.0832C22.9241 10.3333 24.4166 11.825 24.4166 13.6667V20.7083L26.1399 19.1L27.2766 20.3167L23.5832 23.7667L19.8899 20.3167L21.0266 19.1L22.7499 20.7083V13.6667C22.7499 12.75 22.0032 12 21.0832 12Z" fill="#536471"/>
</g>
<rect x="0.333252" width="34" height="34" rx="17" fill="#DEF1EB"/>
<g clip-path="url(#clip1_1_468)">
<path d="M11.0832 10.2333L14.7766 13.6833L13.6399 14.9L11.9166 13.2917V20.3333C11.9166 21.25 12.6632 22 13.5832 22H18.1666V23.6667H13.5832C11.7424 23.6667 10.2499 22.175 10.2499 20.3333V13.2917L8.52656 14.9L7.38989 13.6833L11.0832 10.2333ZM21.0832 12H16.4999V10.3333H21.0832C22.9241 10.3333 24.4166 11.825 24.4166 13.6667V20.7083L26.1399 19.1L27.2766 20.3167L23.5832 23.7667L19.8899 20.3167L21.0266 19.1L22.7499 20.7083V13.6667C22.7499 12.75 22.0032 12 21.0832 12Z" fill="#00BA7C"/>
</g>
<path d="M42.6358 12.5455V22H41.4909V13.7457H41.4355L39.1273 15.2784V14.1151L41.4909 12.5455H42.6358ZM45.3549 22V21.169L48.4757 17.7528C48.8419 17.3527 49.1435 17.005 49.3805 16.7095C49.6175 16.411 49.7929 16.1309 49.9068 15.8693C50.0237 15.6046 50.0822 15.3277 50.0822 15.0384C50.0822 14.706 50.0022 14.4182 49.8421 14.1751C49.6852 13.9319 49.4697 13.7442 49.1958 13.6119C48.9219 13.4795 48.6141 13.4134 48.2725 13.4134C47.9094 13.4134 47.5924 13.4888 47.3215 13.6396C47.0538 13.7873 46.846 13.995 46.6983 14.2628C46.5537 14.5305 46.4813 14.8445 46.4813 15.2045H45.3918C45.3918 14.6506 45.5196 14.1643 45.775 13.7457C46.0305 13.3272 46.3782 13.0009 46.8183 12.767C47.2615 12.5331 47.7586 12.4162 48.3095 12.4162C48.8634 12.4162 49.3543 12.5331 49.7821 12.767C50.2099 13.0009 50.5454 13.3164 50.7885 13.7134C51.0316 14.1104 51.1532 14.5521 51.1532 15.0384C51.1532 15.3861 51.0901 15.7262 50.9639 16.0586C50.8408 16.3879 50.6254 16.7557 50.3176 17.1619C50.0129 17.5651 49.5898 18.0575 49.0481 18.6392L46.9245 20.9105V20.9844H51.3194V22H45.3549ZM56.5499 12.5455V22H55.405V13.7457H55.3496L53.0413 15.2784V14.1151L55.405 12.5455H56.5499Z" fill="#00BA7C"/>
<defs>
<clipPath id="clip0_1_468">
<rect width="20" height="20" fill="white" transform="translate(7.33325 7)"/>
</clipPath>
<clipPath id="clip1_1_468">
<rect width="20" height="20" fill="white" transform="translate(7.33325 7)"/>
</clipPath>
</defs>
</svg>
