<svg width="61" height="28" viewBox="0 0 61 28" fill="none" xmlns="http://www.w3.org/2000/svg">
<g clip-path="url(#clip0_1_418)">
<path d="M11.0832 3.53607L14.7766 6.98607L13.6399 8.20274L11.9166 6.59441V13.6361C11.9166 14.5527 12.6632 15.3027 13.5832 15.3027H18.1666V16.9694H13.5832C11.7424 16.9694 10.2499 15.4777 10.2499 13.6361V6.59441L8.52656 8.20274L7.38989 6.98607L11.0832 3.53607ZM21.0832 5.30274H16.4999V3.63607H21.0832C22.9241 3.63607 24.4166 5.12774 24.4166 6.9694V14.0111L26.1399 12.4027L27.2766 13.6194L23.5832 17.0694L19.8899 13.6194L21.0266 12.4027L22.7499 14.0111V6.9694C22.7499 6.05274 22.0032 5.30274 21.0832 5.30274Z" fill="#536471"/>
</g>
<path d="M42.6358 5.84819V15.3027H41.4909V7.04847H41.4355L39.1273 8.58114V7.41779L41.4909 5.84819H42.6358ZM48.4387 15.432C47.7432 15.432 47.1507 15.2427 46.6614 14.8642C46.172 14.4825 45.7981 13.9301 45.5396 13.2069C45.2811 12.4805 45.1518 11.6034 45.1518 10.5755C45.1518 9.55368 45.2811 8.68117 45.5396 7.95792C45.8012 7.23159 46.1766 6.67762 46.666 6.29599C47.1584 5.91128 47.7493 5.71893 48.4387 5.71893C49.1281 5.71893 49.7175 5.91128 50.2068 6.29599C50.6993 6.67762 51.0747 7.23159 51.3333 7.95792C51.5949 8.68117 51.7257 9.55368 51.7257 10.5755C51.7257 11.6034 51.5964 12.4805 51.3379 13.2069C51.0793 13.9301 50.7054 14.4825 50.2161 14.8642C49.7267 15.2427 49.1343 15.432 48.4387 15.432ZM48.4387 14.4164C49.1281 14.4164 49.6636 14.084 50.0453 13.4192C50.4269 12.7544 50.6177 11.8065 50.6177 10.5755C50.6177 9.75681 50.53 9.05972 50.3546 8.4842C50.1822 7.90868 49.9329 7.47011 49.6067 7.1685C49.2835 6.86689 48.8942 6.71609 48.4387 6.71609C47.7555 6.71609 47.2215 7.05309 46.8368 7.72709C46.4521 8.39802 46.2597 9.34748 46.2597 10.5755C46.2597 11.3941 46.3459 12.0897 46.5183 12.6621C46.6906 13.2346 46.9384 13.67 47.2615 13.9686C47.5878 14.2671 47.9802 14.4164 48.4387 14.4164Z" fill="#536471"/>
<defs>
<clipPath id="clip0_1_418">
<rect width="20" height="20" fill="white" transform="translate(7.33325 0.302734)"/>
</clipPath>
</defs>
</svg>
