<svg width="24" height="24" viewBox="0 0 24 24" fill="none" xmlns="http://www.w3.org/2000/svg">
<path d="M21.6357 7.12836C21.77 9.68733 21.1979 12.2339 19.9819 14.4895C18.7659 16.7451 16.953 18.6229 14.7415 19.9172C12.5299 21.2116 10.005 21.8728 7.44289 21.8284C4.88078 21.7841 2.38024 21.0359 0.214844 19.6657C2.71698 19.8302 5.19172 19.0648 7.1641 17.5164C6.22434 17.4044 5.33545 17.0288 4.60016 16.433C3.86487 15.8371 3.31319 15.0454 3.00887 14.1493C3.75056 14.2684 4.50955 14.2195 5.22977 14.006C4.11453 13.7961 3.10344 13.2142 2.36171 12.3554C1.61998 11.4965 1.19146 10.4115 1.14619 9.27761C1.78328 9.53304 2.46603 9.65496 3.15216 9.63582C2.19665 8.89664 1.54009 7.83738 1.30317 6.65278C1.06625 5.46819 1.2649 4.23789 1.8626 3.18806C3.09208 4.70639 4.62634 5.94996 6.36631 6.83845C8.10628 7.72695 10.0133 8.24061 11.9641 8.34627C11.6365 7.28171 11.6893 6.13636 12.1135 5.10647C12.5377 4.07658 13.3069 3.22627 14.2892 2.70124C15.2715 2.17621 16.4058 2.00914 17.4978 2.22866C18.5898 2.44818 19.5714 3.04063 20.2745 3.90448C21.3722 3.70748 22.4195 3.29343 23.3551 2.68657C22.9987 3.8492 22.2016 4.82628 21.1342 5.40896C22.1043 5.31078 23.0499 5.04409 23.9283 4.6209C23.5072 5.71561 22.6884 6.61108 21.6357 7.12836Z" fill="#3BA9EE"/>
</svg>
